<?xml version="1.0" ?>
<!-- Uploaded to: SVG Repo, www.svgrepo.com, Generator: SVG Repo Mixer Tools -->
<svg width="800px" height="800px" viewBox="0 0 512 512" version="1.1" xml:space="preserve" xmlns="http://www.w3.org/2000/svg" xmlns:xlink="http://www.w3.org/1999/xlink">
<style type="text/css">
	.st0{fill:#16ADE1;}
	.st1{fill:#1B3954;}
</style>
<g id="Layer_1"/>
<g id="Layer_2">
<g>
<polygon class="st0" points="209.6,287.5 291.2,200.8 378.6,107.8 363.2,92.4 270.7,179.4 183.5,261.4   "/>
<polygon class="st1" points="419.4,87.6 435.6,57 414,35.4 383.4,51.6 367.2,82.2 388.8,103.8   "/>
<path class="st1" d="M250.3,313.2l112.9-93.6l-61-16l-92.4,98.2l-40.7-40.7l86.2-81l-46-20.6l-43.5,56.9L28.1,322.4l118.1,5.5    l16.5,148.7l28.1-52.4l22.6-42.3L250.3,313.2z M186.3,330.4l-45.7-45.7l14.7-14.7l45.7,45.7L186.3,330.4z"/>
<path class="st0" d="M480.2,313.3c-2.7-0.7-5.4,0.9-6.1,3.5c-0.1,0.2-5.4,19.4-22.8,43.4c-16.1,22.1-46.1,52.9-97.7,74.1    c-83.1,34.1-119.6-5.1-128.9-17.9c-0.2-0.2-0.3-0.4-0.5-0.6l13.2-13.2L222,387.3L199.6,429l-1.4,2.7l5,5l13.7-13.7    c7.9,10.6,30.8,35,75.4,35c18,0,39.5-4,64.9-14.4c54-22.2,85.5-54.6,102.3-77.9c18.4-25.4,23.9-45.5,24.1-46.3    C484.4,316.7,482.8,314,480.2,313.3z"/>
</g>
</g>
</svg>