<?xml version="1.0" ?>
<!-- Uploaded to: SVG Repo, www.svgrepo.com, Generator: SVG Repo Mixer Tools -->
<svg width="800px" height="800px" viewBox="0 0 512 512" version="1.1" xml:space="preserve" xmlns="http://www.w3.org/2000/svg" xmlns:xlink="http://www.w3.org/1999/xlink">
<style type="text/css">
	.st0{fill:#16ADE1;}
	.st1{fill:#1B3954;}
</style>
<g id="Layer_1"/>
<g id="Layer_2">
<g>
<path class="st1" d="M208.2,310c24.9-24.9,43.7-28.2,66.6-10.9c33.6-50.8,35.9-92,18.9-123.2l-96.7,104.5l-46.6-46.7l104.5-96.7    c-31.3-17-72.4-14.8-123.2,18.9c17.3,22.9,14,41.7-10.9,66.6c-24.9,24.9-43.6,28.2-66.6,10.8c-42.3,63.8-31.7,109.2,1.1,142    c32.8,32.8,78.2,43.4,142,1.1C180,353.7,183.3,334.9,208.2,310z M136.5,338.4l-44.2-44.2l22.3-22.3l44.2,44.2L136.5,338.4z     M170.6,299.2c-1,1-2.3,1.5-3.5,1.5s-2.6-0.5-3.5-1.5l-31.9-32c-2-2-2-5.1,0-7.1c1.9-2,5.1-2,7.1,0l31.9,32    C172.5,294.1,172.5,297.2,170.6,299.2z"/>
<path class="st0" d="M164.7,234.1l31.9,31.9l91.5-98.9l69-74.6l19.1,19.1c1,1,2.3,1.5,3.5,1.5s2.6-0.5,3.5-1.5c2-2,2-5.1,0-7.1    l-19.2-19.2c0,0-0.1-0.1-0.2-0.1l11.4-12.3l13.4,13.4c1,1,2.3,1.5,3.5,1.5c1.3,0,2.6-0.5,3.5-1.5c2-2,2-5.1,0-7.1l-13.5-13.5    c0,0-0.1-0.1-0.2-0.1l8.6-9.3l-16.2-16.2l-9.3,8.6c0,0-0.1-0.1-0.1-0.2L351.6,35c-2-2-5.1-2-7.1,0c-2,2-2,5.1,0,7.1l13.4,13.4    l-12.3,11.4c0,0-0.1-0.1-0.1-0.2l-19.2-19.2c-2-2-5.1-2-7.1,0c-2,2-2,5.1,0,7.1l19.1,19.1l-74.6,69L164.7,234.1z"/>
<path class="st1" d="M484.1,174.1c-2-2-5.1-2-7.1,0l-14.7,14.7l-15.4-15.4c-2-2-5.1-2-7.1,0L180.5,432.7c-2,2-2,5.1,0,7.1    l15.4,15.4l-14.7,14.7c-2,2-2,5.1,0,7.1c1,1,2.3,1.5,3.5,1.5s2.6-0.5,3.5-1.5l18.3-18.3l259.3-259.3l18.3-18.3    C486.1,179.2,486.1,176.1,484.1,174.1z M203,448.1l-11.9-11.9L443.4,184l11.9,11.9L203,448.1z"/>
</g>
</g>
</svg>